<svg width="210" height="48" viewBox="0 0 210 48" fill="none" xmlns="http://www.w3.org/2000/svg">
<g clip-path="url(#clip0)">
<path d="M47.52 28.5C48.18 29.88 48.18 31.44 47.52 32.82C45.24 37.44 40.5 40.68 35.04 40.68C29.58 40.68 24.84 37.5 22.56 32.82C21.9 31.44 21.9 29.88 22.56 28.5C24.84 23.88 29.58 20.7 35.04 20.7C40.5 20.7 45.24 23.88 47.52 28.5Z" fill="url(#paint0_linear)"/>
<path d="M35.04 24C39.2153 24 42.6 20.2661 42.6 15.66C42.6 11.054 39.2153 7.32001 35.04 7.32001C30.8647 7.32001 27.48 11.054 27.48 15.66C27.48 20.2661 30.8647 24 35.04 24Z" fill="url(#paint1_linear)"/>
<path d="M40.26 21.72C38.88 23.16 37.08 24 35.04 24C33 24 31.2 23.16 29.82 21.72C31.44 21.06 33.18 20.7 35.04 20.7C36.9 20.7 38.64 21.06 40.26 21.72Z" fill="url(#paint2_linear)"/>
<path d="M30.48 29.4C31.26 31.02 31.26 32.94 30.48 34.56C27.78 40.14 22.08 43.98 15.54 43.98C9.00002 43.98 3.30001 40.14 0.600015 34.56C-0.179985 32.94 -0.179985 31.02 0.600015 29.4C3.30001 23.82 9.00002 20.04 15.54 20.04C22.08 20.04 27.78 23.82 30.48 29.4Z" fill="url(#paint3_linear)"/>
<path d="M15.54 23.94C20.5437 23.94 24.6 19.4808 24.6 13.98C24.6 8.47926 20.5437 4.02002 15.54 4.02002C10.5363 4.02002 6.47998 8.47926 6.47998 13.98C6.47998 19.4808 10.5363 23.94 15.54 23.94Z" fill="url(#paint4_linear)"/>
<path d="M21.78 21.24C20.16 22.92 17.94 24 15.54 24C13.14 24 10.92 22.98 9.29999 21.24C11.22 20.46 13.32 20.04 15.54 20.04C17.76 19.98 19.86 20.46 21.78 21.24Z" fill="url(#paint5_linear)"/>
</g>
<path d="M71.9102 27.1992C71.7773 29.0352 71.0977 30.4805 69.8711 31.5352C68.6523 32.5898 67.043 33.1172 65.043 33.1172C62.8555 33.1172 61.1328 32.3828 59.875 30.9141C58.625 29.4375 58 27.4141 58 24.8438V23.8008C58 22.1602 58.2891 20.7148 58.8672 19.4648C59.4453 18.2148 60.2695 17.2578 61.3398 16.5938C62.418 15.9219 63.668 15.5859 65.0898 15.5859C67.0586 15.5859 68.6445 16.1133 69.8477 17.168C71.0508 18.2227 71.7461 19.7031 71.9336 21.6094H68.418C68.332 20.5078 68.0234 19.7109 67.4922 19.2188C66.9688 18.7188 66.168 18.4688 65.0898 18.4688C63.918 18.4688 63.0391 18.8906 62.4531 19.7344C61.875 20.5703 61.5781 21.8711 61.5625 23.6367V24.9258C61.5625 26.7695 61.8398 28.1172 62.3945 28.9688C62.957 29.8203 63.8398 30.2461 65.043 30.2461C66.1289 30.2461 66.9375 30 67.4688 29.5078C68.0078 29.0078 68.3164 28.2383 68.3945 27.1992H71.9102Z" fill="black"/>
<path d="M73.4688 26.4258C73.4688 25.168 73.7109 24.0469 74.1953 23.0625C74.6797 22.0781 75.375 21.3164 76.2812 20.7773C77.1953 20.2383 78.2539 19.9688 79.457 19.9688C81.168 19.9688 82.5625 20.4922 83.6406 21.5391C84.7266 22.5859 85.332 24.0078 85.457 25.8047L85.4805 26.6719C85.4805 28.6172 84.9375 30.1797 83.8516 31.3594C82.7656 32.5312 81.3086 33.1172 79.4805 33.1172C77.6523 33.1172 76.1914 32.5312 75.0977 31.3594C74.0117 30.1875 73.4688 28.5938 73.4688 26.5781V26.4258ZM76.8555 26.6719C76.8555 27.875 77.082 28.7969 77.5352 29.4375C77.9883 30.0703 78.6367 30.3867 79.4805 30.3867C80.3008 30.3867 80.9414 30.0742 81.4023 29.4492C81.8633 28.8164 82.0938 27.8086 82.0938 26.4258C82.0938 25.2461 81.8633 24.332 81.4023 23.6836C80.9414 23.0352 80.293 22.7109 79.457 22.7109C78.6289 22.7109 77.9883 23.0352 77.5352 23.6836C77.082 24.3242 76.8555 25.3203 76.8555 26.6719Z" fill="black"/>
<path d="M90.6836 20.2031L90.7891 21.668C91.6953 20.5352 92.9102 19.9688 94.4336 19.9688C95.7773 19.9688 96.7773 20.3633 97.4336 21.1523C98.0898 21.9414 98.4258 23.1211 98.4414 24.6914V32.8828H95.0547V24.7734C95.0547 24.0547 94.8984 23.5352 94.5859 23.2148C94.2734 22.8867 93.7539 22.7227 93.0273 22.7227C92.0742 22.7227 91.3594 23.1289 90.8828 23.9414V32.8828H87.4961V20.2031H90.6836Z" fill="black"/>
<path d="M105.074 17.0859V20.2031H107.242V22.6875H105.074V29.0156C105.074 29.4844 105.164 29.8203 105.344 30.0234C105.523 30.2266 105.867 30.3281 106.375 30.3281C106.75 30.3281 107.082 30.3008 107.371 30.2461V32.8125C106.707 33.0156 106.023 33.1172 105.32 33.1172C102.945 33.1172 101.734 31.918 101.688 29.5195V22.6875H99.8359V20.2031H101.688V17.0859H105.074Z" fill="black"/>
<path d="M116.477 32.8828C116.32 32.5781 116.207 32.1992 116.137 31.7461C115.316 32.6602 114.25 33.1172 112.938 33.1172C111.695 33.1172 110.664 32.7578 109.844 32.0391C109.031 31.3203 108.625 30.4141 108.625 29.3203C108.625 27.9766 109.121 26.9453 110.113 26.2266C111.113 25.5078 112.555 25.1445 114.438 25.1367H115.996V24.4102C115.996 23.8242 115.844 23.3555 115.539 23.0039C115.242 22.6523 114.77 22.4766 114.121 22.4766C113.551 22.4766 113.102 22.6133 112.773 22.8867C112.453 23.1602 112.293 23.5352 112.293 24.0117H108.906C108.906 23.2773 109.133 22.5977 109.586 21.9727C110.039 21.3477 110.68 20.8594 111.508 20.5078C112.336 20.1484 113.266 19.9688 114.297 19.9688C115.859 19.9688 117.098 20.3633 118.012 21.1523C118.934 21.9336 119.395 23.0352 119.395 24.457V29.9531C119.402 31.1562 119.57 32.0664 119.898 32.6836V32.8828H116.477ZM113.676 30.5273C114.176 30.5273 114.637 30.418 115.059 30.1992C115.48 29.9727 115.793 29.6719 115.996 29.2969V27.1172H114.73C113.035 27.1172 112.133 27.7031 112.023 28.875L112.012 29.0742C112.012 29.4961 112.16 29.8438 112.457 30.1172C112.754 30.3906 113.16 30.5273 113.676 30.5273Z" fill="black"/>
<path d="M127.27 30.3867C127.895 30.3867 128.402 30.2148 128.793 29.8711C129.184 29.5273 129.387 29.0703 129.402 28.5H132.578C132.57 29.3594 132.336 30.1484 131.875 30.8672C131.414 31.5781 130.781 32.1328 129.977 32.5312C129.18 32.9219 128.297 33.1172 127.328 33.1172C125.516 33.1172 124.086 32.543 123.039 31.3945C121.992 30.2383 121.469 28.6445 121.469 26.6133V26.3906C121.469 24.4375 121.988 22.8789 123.027 21.7148C124.066 20.5508 125.492 19.9688 127.305 19.9688C128.891 19.9688 130.16 20.4219 131.113 21.3281C132.074 22.2266 132.562 23.4258 132.578 24.9258H129.402C129.387 24.2695 129.184 23.7383 128.793 23.332C128.402 22.918 127.887 22.7109 127.246 22.7109C126.457 22.7109 125.859 23 125.453 23.5781C125.055 24.1484 124.855 25.0781 124.855 26.3672V26.7188C124.855 28.0234 125.055 28.9609 125.453 29.5312C125.852 30.1016 126.457 30.3867 127.27 30.3867Z" fill="black"/>
<path d="M138.566 17.0859V20.2031H140.734V22.6875H138.566V29.0156C138.566 29.4844 138.656 29.8203 138.836 30.0234C139.016 30.2266 139.359 30.3281 139.867 30.3281C140.242 30.3281 140.574 30.3008 140.863 30.2461V32.8125C140.199 33.0156 139.516 33.1172 138.812 33.1172C136.438 33.1172 135.227 31.918 135.18 29.5195V22.6875H133.328V20.2031H135.18V17.0859H138.566Z" fill="black"/>
<path d="M149.488 29.3789C149.488 28.9648 149.281 28.6406 148.867 28.4062C148.461 28.1641 147.805 27.9492 146.898 27.7617C143.883 27.1289 142.375 25.8477 142.375 23.918C142.375 22.793 142.84 21.8555 143.77 21.1055C144.707 20.3477 145.93 19.9688 147.438 19.9688C149.047 19.9688 150.332 20.3477 151.293 21.1055C152.262 21.8633 152.746 22.8477 152.746 24.0586H149.359C149.359 23.5742 149.203 23.1758 148.891 22.8633C148.578 22.543 148.09 22.3828 147.426 22.3828C146.855 22.3828 146.414 22.5117 146.102 22.7695C145.789 23.0273 145.633 23.3555 145.633 23.7539C145.633 24.1289 145.809 24.4336 146.16 24.668C146.52 24.8945 147.121 25.0938 147.965 25.2656C148.809 25.4297 149.52 25.6172 150.098 25.8281C151.887 26.4844 152.781 27.6211 152.781 29.2383C152.781 30.3945 152.285 31.332 151.293 32.0508C150.301 32.7617 149.02 33.1172 147.449 33.1172C146.387 33.1172 145.441 32.9297 144.613 32.5547C143.793 32.1719 143.148 31.6523 142.68 30.9961C142.211 30.332 141.977 29.6172 141.977 28.8516H145.188C145.219 29.4531 145.441 29.9141 145.855 30.2344C146.27 30.5547 146.824 30.7148 147.52 30.7148C148.168 30.7148 148.656 30.5938 148.984 30.3516C149.32 30.1016 149.488 29.7773 149.488 29.3789Z" fill="black"/>
<path d="M155.195 32.8828V15.8203H161.172C163.242 15.8203 164.812 16.2188 165.883 17.0156C166.953 17.8047 167.488 18.9648 167.488 20.4961C167.488 21.332 167.273 22.0703 166.844 22.7109C166.414 23.3438 165.816 23.8086 165.051 24.1055C165.926 24.3242 166.613 24.7656 167.113 25.4297C167.621 26.0938 167.875 26.9062 167.875 27.8672C167.875 29.5078 167.352 30.75 166.305 31.5938C165.258 32.4375 163.766 32.8672 161.828 32.8828H155.195ZM158.711 25.4531V30.0586H161.723C162.551 30.0586 163.195 29.8633 163.656 29.4727C164.125 29.0742 164.359 28.5273 164.359 27.832C164.359 26.2695 163.551 25.4766 161.934 25.4531H158.711ZM158.711 22.9688H161.312C163.086 22.9375 163.973 22.2305 163.973 20.8477C163.973 20.0742 163.746 19.5195 163.293 19.1836C162.848 18.8398 162.141 18.668 161.172 18.668H158.711V22.9688Z" fill="black"/>
<path d="M169.773 26.4258C169.773 25.168 170.016 24.0469 170.5 23.0625C170.984 22.0781 171.68 21.3164 172.586 20.7773C173.5 20.2383 174.559 19.9688 175.762 19.9688C177.473 19.9688 178.867 20.4922 179.945 21.5391C181.031 22.5859 181.637 24.0078 181.762 25.8047L181.785 26.6719C181.785 28.6172 181.242 30.1797 180.156 31.3594C179.07 32.5312 177.613 33.1172 175.785 33.1172C173.957 33.1172 172.496 32.5312 171.402 31.3594C170.316 30.1875 169.773 28.5938 169.773 26.5781V26.4258ZM173.16 26.6719C173.16 27.875 173.387 28.7969 173.84 29.4375C174.293 30.0703 174.941 30.3867 175.785 30.3867C176.605 30.3867 177.246 30.0742 177.707 29.4492C178.168 28.8164 178.398 27.8086 178.398 26.4258C178.398 25.2461 178.168 24.332 177.707 23.6836C177.246 23.0352 176.598 22.7109 175.762 22.7109C174.934 22.7109 174.293 23.0352 173.84 23.6836C173.387 24.3242 173.16 25.3203 173.16 26.6719Z" fill="black"/>
<path d="M183.344 26.4258C183.344 25.168 183.586 24.0469 184.07 23.0625C184.555 22.0781 185.25 21.3164 186.156 20.7773C187.07 20.2383 188.129 19.9688 189.332 19.9688C191.043 19.9688 192.438 20.4922 193.516 21.5391C194.602 22.5859 195.207 24.0078 195.332 25.8047L195.355 26.6719C195.355 28.6172 194.812 30.1797 193.727 31.3594C192.641 32.5312 191.184 33.1172 189.355 33.1172C187.527 33.1172 186.066 32.5312 184.973 31.3594C183.887 30.1875 183.344 28.5938 183.344 26.5781V26.4258ZM186.73 26.6719C186.73 27.875 186.957 28.7969 187.41 29.4375C187.863 30.0703 188.512 30.3867 189.355 30.3867C190.176 30.3867 190.816 30.0742 191.277 29.4492C191.738 28.8164 191.969 27.8086 191.969 26.4258C191.969 25.2461 191.738 24.332 191.277 23.6836C190.816 23.0352 190.168 22.7109 189.332 22.7109C188.504 22.7109 187.863 23.0352 187.41 23.6836C186.957 24.3242 186.73 25.3203 186.73 26.6719Z" fill="black"/>
<path d="M202.047 27.7969L200.828 29.0156V32.8828H197.441V14.8828H200.828V24.8555L201.484 24.0117L204.73 20.2031H208.797L204.215 25.4883L209.195 32.8828H205.305L202.047 27.7969Z" fill="black"/>
<defs>
<linearGradient id="paint0_linear" x1="27.1897" y1="38.5149" x2="42.8931" y2="22.8115" gradientUnits="userSpaceOnUse">
<stop stop-color="#25303D"/>
<stop offset="1" stop-color="#475360"/>
</linearGradient>
<linearGradient id="paint1_linear" x1="40.6658" y1="10.0342" x2="29.417" y2="21.2831" gradientUnits="userSpaceOnUse">
<stop stop-color="#A5AFB5"/>
<stop offset="1" stop-color="#778591"/>
</linearGradient>
<linearGradient id="paint2_linear" x1="32.4371" y1="24.301" x2="37.6468" y2="19.0914" gradientUnits="userSpaceOnUse">
<stop stop-color="#7D888E"/>
<stop offset="1" stop-color="#7D888E" stop-opacity="0"/>
</linearGradient>
<linearGradient id="paint3_linear" x1="6.12512" y1="41.4089" x2="24.9595" y2="22.5746" gradientUnits="userSpaceOnUse">
<stop stop-color="#25303D"/>
<stop offset="1" stop-color="#475360"/>
</linearGradient>
<linearGradient id="paint4_linear" x1="22.2881" y1="7.24976" x2="8.79646" y2="20.7414" gradientUnits="userSpaceOnUse">
<stop stop-color="#A5AFB5"/>
<stop offset="1" stop-color="#778591"/>
</linearGradient>
<linearGradient id="paint5_linear" x1="12.4188" y1="24.361" x2="18.6671" y2="18.1127" gradientUnits="userSpaceOnUse">
<stop stop-color="#7D888E"/>
<stop offset="1" stop-color="#7D888E" stop-opacity="0"/>
</linearGradient>
<clipPath id="clip0">
<rect width="48" height="48" fill="white"/>
</clipPath>
</defs>
</svg>
